<?xml version="1.0" encoding="UTF-8"?>
<!-- Generated by Pixelmator Pro 3.6.4 -->
<svg width="239" height="239" viewBox="0 0 239 239" xmlns="http://www.w3.org/2000/svg">
    <path id="Path" fill="#1a2734" stroke="none" d="M 149 7 C 149.655487 7.193359 150.310974 7.386719 150.986328 7.585938 C 167.207977 12.493332 181.945343 20.174637 195 31 C 195.859802 31.707703 196.719604 32.41539 197.605469 33.144531 C 219.133057 51.668274 232.941101 78.77742 236 107 C 236.628021 120.843773 236.880219 134.603638 233 148 C 232.811951 148.678696 232.623917 149.357376 232.430176 150.056641 C 224.428101 178.449005 207.804596 201.877014 183 218 C 182.303909 218.488556 181.607819 218.977112 180.890625 219.480469 C 168.425003 227.724579 152.683853 232.710587 138 235 C 137.267807 235.128906 136.535629 235.257813 135.78125 235.390625 C 106.113907 239.726624 76.126793 231.233429 52 214 C 26.918587 195.051743 10.500931 169.069275 5 138 C 4.869812 137.275543 4.739609 136.551086 4.605469 135.804688 C 0.52771 107.206055 8.123444 76.409424 25 53 C 27.576797 49.58638 30.25798 46.281616 33 43 C 33.518204 42.334839 34.036407 41.669693 34.570313 40.984375 C 59.950218 9.610214 111.041931 -4.335892 149 7 Z"/>
    <path id="path1" fill="#f8f8f9" stroke="none" d="M 102.957031 56.742188 C 109.249374 60.616257 113.76516 64.706375 116 72 C 116.559814 77.950516 116.466171 83.872589 116.390625 89.84375 C 116.383156 91.581085 116.377464 93.318436 116.373474 95.055786 C 116.358276 99.606476 116.319038 104.156662 116.274658 108.707153 C 116.233582 113.35939 116.215439 118.011703 116.195313 122.664063 C 116.152542 131.776276 116.084358 140.888092 116 150 C 113.493423 148.502167 110.997986 146.998718 108.535156 145.429688 C 107.719177 144.916641 106.903206 144.403595 106.0625 143.875 C 104.8424 143.097687 104.8424 143.097687 103.597656 142.304688 C 96.330017 138.65448 86.01107 139.005096 78 140 C 74.970612 141.037613 72.500618 142.229462 69.785156 143.90625 C 68 145 68 145 66 145 C 65.814629 134.004028 65.672485 123.008415 65.585503 112.011185 C 65.543755 106.904602 65.487129 101.799088 65.396484 96.693115 C 65.309547 91.765259 65.261719 86.838425 65.240982 81.909851 C 65.226196 80.029846 65.197342 78.149887 65.15416 76.270309 C 65.096046 73.635757 65.088089 71.005447 65.091797 68.370361 C 65.063034 67.593521 65.034271 66.816681 65.004639 66.016312 C 65.037964 63.828201 65.037964 63.828201 66 60 C 75.122032 51.636795 92.176338 51.435333 102.957031 56.742188 Z"/>
    <path id="path2" fill="#f5f6f6" stroke="none" d="M 56 65 C 56.330002 98.660004 56.660004 132.320007 57 167 C 75.315002 167.494995 75.315002 167.494995 94 168 C 98.85408 171.236053 103.188263 174.561493 107.632813 178.292969 C 113.622231 182.612061 121.931976 181.649323 129 181 C 132.901581 179.629837 135.858948 177.474823 138.394775 174.197266 C 141.564117 170.474274 144.460999 168.852844 149.30249 168.433838 C 154.539856 168.22316 159.763885 168.389023 165 168.5625 C 166.842392 168.597656 168.684845 168.629578 170.527344 168.658203 C 175.019836 168.734955 179.509201 168.85553 184 169 C 185.144501 165.566498 185.103943 162.965942 185.078369 159.344727 C 185.07225 157.952179 185.06633 156.559601 185.060562 155.167053 C 185.055893 154.42984 185.051224 153.692612 185.046402 152.933044 C 185.027206 149.020447 185.042435 145.107925 185.052734 141.195313 C 185.064972 136.220047 185.066696 131.245636 185.02417 126.270508 C 184.990677 122.24646 184.996277 118.224106 185.02774 114.200073 C 185.032654 112.670731 185.023438 111.141281 184.999527 109.612122 C 184.823502 97.649582 184.823502 97.649582 187.810272 93.461792 C 192.802872 89 192.802872 89 195 89 C 195.069534 99.344299 195.122818 109.688568 195.155441 120.033051 C 195.171082 124.836487 195.192322 129.639771 195.226318 134.443115 C 195.258926 139.079102 195.276855 143.714951 195.284637 148.351044 C 195.290176 150.119293 195.300995 151.887512 195.317184 153.65567 C 195.338989 156.133514 195.341965 158.610718 195.340576 161.088623 C 195.351364 161.818695 195.362152 162.548798 195.37326 163.300995 C 195.34642 167.726608 194.69632 170.472565 192 174 C 187.046631 178.329681 183.144257 178.547867 176.882813 178.390625 C 176.025665 178.384964 175.168503 178.379303 174.28537 178.373474 C 171.564667 178.351196 168.845306 178.301025 166.125 178.25 C 164.273468 178.229919 162.42189 178.21167 160.570313 178.195313 C 156.046356 178.151367 151.523407 178.082397 147 178 C 146.708099 178.622528 146.416214 179.245071 146.115479 179.886475 C 143.349487 185.127289 137.163986 188.835953 131.75 190.9375 C 123.106567 193.370346 113.043762 193.205704 105 189 C 100.229118 185.889526 96.443077 183.21051 94 178 C 92.819702 178.026184 91.639404 178.052368 90.42334 178.079346 C 86.029007 178.170105 81.63475 178.227341 77.239746 178.274658 C 75.340515 178.299744 73.441383 178.333832 71.54248 178.377197 C 68.806725 178.43811 66.07225 178.466263 63.335938 178.488281 C 62.491951 178.514099 61.647972 178.539886 60.778412 178.566483 C 56.594116 178.568451 53.864483 178.334427 50.541504 175.656982 C 47.445316 172.420105 45.753799 170.459854 45.732574 165.997116 C 45.724045 165.185486 45.715515 164.373871 45.706726 163.537643 C 45.707634 162.650833 45.708538 161.764023 45.709473 160.850342 C 45.702755 159.913452 45.696037 158.976547 45.689117 158.011261 C 45.670086 154.907196 45.66621 151.803345 45.664063 148.699219 C 45.657639 146.543121 45.650909 144.387024 45.64389 142.230911 C 45.631905 137.707397 45.628212 133.183929 45.629395 128.6604 C 45.629597 122.866409 45.60231 117.072906 45.567848 111.279037 C 45.545601 106.824036 45.541557 102.369156 45.542614 97.914093 C 45.540253 95.778275 45.53141 93.642456 45.515949 91.506683 C 45.49633 88.516724 45.502113 85.527817 45.51416 82.537842 C 45.502922 81.657104 45.491684 80.776367 45.480103 79.868942 C 45.535675 74.436218 46.344227 71.285797 50 67 C 53 65 53 65 56 65 Z"/>
    <path id="path3" fill="#f6f7f7" stroke="none" d="M 135 62 C 138.108658 89.589371 138.108658 89.589371 136.425781 99.320313 C 136.285278 100.204605 136.14476 101.088898 136 102 C 136.330002 102.330002 136.660004 102.660004 137 103 C 138.482285 102.959778 139.962326 102.837936 141.4375 102.6875 C 142.91864 102.538605 142.91864 102.538605 144.429688 102.386719 C 149.379913 101.850525 154.329636 101.310013 159.2771 100.748779 C 164.848312 100.117508 170.419449 99.55806 176 99 C 176 114.509995 176 130.019989 176 146 C 171 144 171 144 169.210938 142.929688 C 161.473404 138.484726 151.622375 138.740356 143 140 C 136.358078 142.160553 131.384232 145.656311 126 150 C 125.907181 139.951035 125.836182 129.902176 125.792755 119.852875 C 125.771912 115.186188 125.743652 110.519791 125.698242 105.853271 C 125.654678 101.346924 125.630844 96.840881 125.620483 92.334335 C 125.613113 90.617981 125.598724 88.901627 125.577087 87.185394 C 125.547897 84.774872 125.544052 82.365509 125.545898 79.954834 C 125.531525 79.250641 125.517136 78.546448 125.502319 77.820923 C 125.553207 71.658844 127.711075 67.729111 131.625 63.0625 C 133 62 133 62 135 62 Z"/>
    <path id="path4" fill="#f7f8f8" stroke="none" d="M 180.035156 44.058594 C 185.557541 47.132141 190.128922 50.818939 192 57 C 193.168701 65.624786 192.984619 73.223709 188.191406 80.789063 C 181.166809 87.876282 174.554886 90.0056 164.75 90.875 C 163.687805 90.991013 162.625626 91.107025 161.53125 91.226563 C 156.999756 91.704758 152.55928 92.058716 148 92 C 143.162659 62.716782 143.162659 62.716782 148 54.3125 C 149.367188 52.609375 149.367188 52.609375 151 51 C 151.662582 50.345154 152.325165 49.690308 153.007813 49.015625 C 160.523544 42.082291 170.269073 40.652405 180.035156 44.058594 Z"/>
    <path id="path5" fill="#eff1f1" stroke="none" d="M 101.6875 151.671875 C 107.328484 154.911621 112.177368 158.439438 115.75 163.9375 C 117.618126 167.173401 117.618126 167.173401 120.3125 167.546875 C 124.198395 166.756134 125.863342 164.257904 128.25 161.3125 C 134.1698 154.422333 140.346832 149.595078 149.664063 148.761719 C 159.401093 148.517654 167.319336 150.93631 175 157 C 175 157.660004 175 158.320007 175 159 C 174.163391 159.014587 173.326797 159.029175 172.464844 159.044189 C 169.325958 159.105682 166.187714 159.179901 163.049316 159.262451 C 161.037003 159.3116 159.024338 159.346359 157.011719 159.380859 C 145.708618 159.56958 145.708618 159.56958 135.933594 164.71875 C 135.193024 165.600464 135.193024 165.600464 134.4375 166.5 C 130.303177 170.924286 126.027359 173.067017 119.9375 173.4375 C 114.539246 172.837692 111.958092 170.564392 107.804688 167.246094 C 107.023514 166.628632 106.24234 166.011169 105.4375 165.375 C 104.714333 164.784607 103.991173 164.194214 103.246094 163.585938 C 98.610535 160.312836 94.569626 159.729431 88.949219 159.585938 C 88.290413 159.566574 87.631607 159.547211 86.952835 159.527252 C 84.864517 159.467834 82.776146 159.421234 80.6875 159.375 C 79.264954 159.336792 77.842422 159.297729 76.419922 159.257813 C 72.946823 159.16217 69.473549 159.078003 66 159 C 66 158.339996 66 157.679993 66 157 C 67.792969 155.5625 67.792969 155.5625 70.1875 154 C 70.964806 153.484375 71.742111 152.96875 72.542969 152.4375 C 81.471054 147.214081 92.348877 147.309753 101.6875 151.671875 Z"/>
    <path id="path6" fill="#1d2a37" stroke="none" d="M 175.914063 51.421875 C 179.87529 52.519745 181.386673 53.716583 184 57 C 185.124161 60.282043 185.045074 62.697571 184 66 C 181.403152 69.781372 178.319519 72.850983 175 76 C 174.392853 76.648407 173.785706 77.296799 173.160156 77.964844 C 170.081223 81.043777 167.774506 82.404358 163.375 82.6875 C 159.767303 82.447403 158.995667 81.996582 156 79.625 C 153.997849 76.997177 153.124893 75.640076 152.5 72.4375 C 153.618973 64.744522 160.947968 58.356613 166.667969 53.484375 C 169.846024 51.461502 172.192963 51.030182 175.914063 51.421875 Z"/>
    <path id="path7" fill="#22303d" stroke="none" d="M 161.0625 116 C 162.516556 116.990005 162.516556 116.990005 164 118 C 164.125 120.375 164.125 120.375 164 123 C 162 125 162 125 158.699219 125.089844 C 157.361649 125.048584 156.024368 124.997398 154.6875 124.9375 C 149.314362 124.721733 146.431641 124.929504 142 128 C 139.3125 128.3125 139.3125 128.3125 137 128 C 136.339996 127.339996 135.679993 126.68 135 126 C 135 122.177025 135.957382 121.042625 138.6875 118.3125 C 145.218079 113.391357 153.789566 111.848236 161.0625 116 Z"/>
    <path id="path8" fill="#23303c" stroke="none" d="M 96 90 C 100.058876 91.630798 102.933685 93.933685 106 97 C 105.625 100.625 105.625 100.625 105 104 C 100.653687 104.526825 98.528297 103.134964 94.894531 100.894531 C 90.789993 98.956512 86.462181 99.682129 82.125 100.625 C 81.423752 100.748749 80.722504 100.872498 80 101 C 78 99 78 99 77.625 96.0625 C 78 93 78 93 79.601563 91.339844 C 84.55838 88.570801 90.519234 89.327133 96 90 Z"/>
    <path id="path9" fill="#21303d" stroke="none" d="M 97.640625 115.058594 C 100.803932 116.778 103.449593 118.4496 106 121 C 106.25 123.5 106.25 123.5 106 126 C 105.339996 126.660004 104.68 127.32 104 128 C 100.190903 127.675819 98.216278 127.144188 95 125 C 92.444244 124.908829 89.985435 124.90358 87.4375 125 C 84.93145 125.094299 82.512856 125.093178 80 125 C 78 123 78 123 77.5 120.625 C 78 118 78 118 80.3125 115.6875 C 85.618904 112.63382 92.068459 112.824783 97.640625 115.058594 Z"/>
    <path id="path10" fill="#202f3a" stroke="none" d="M 97 66 C 100.30558 67.098618 102.710403 68.348541 105 71 C 106.0625 74.75 106.0625 74.75 106 78 C 105 79 105 79 102.3125 79.25 C 99 79 99 79 96.0625 77.5 C 91.462021 75.246704 87.632904 75.69191 82.6875 76.625 C 81.357185 76.810623 81.357185 76.810623 80 77 C 78 75 78 75 77.5625 72.625 C 78 70 78 70 80.101563 67.871094 C 85.31974 64.502487 91.015152 65.231674 97 66 Z"/>
</svg>
