<?xml version="1.0" encoding="UTF-8"?>
<svg version="1.1" xmlns="http://www.w3.org/2000/svg" width="256" height="256">
<path d="M0 0 C0.65548828 0.19335938 1.31097656 0.38671875 1.98632812 0.5859375 C18.20797499 5.49332647 32.94533569 13.17464161 46 24 C46.85980469 24.70769531 47.71960938 25.41539063 48.60546875 26.14453125 C70.13306192 44.66827421 83.94111103 71.77742059 87 100 C87.62803085 113.84377018 87.88022123 127.60364687 84 141 C83.81195801 141.67869141 83.62391602 142.35738281 83.43017578 143.05664062 C75.42811173 171.44900791 58.80459104 194.87701582 34 211 C33.30390625 211.48855469 32.6078125 211.97710937 31.890625 212.48046875 C19.42500147 220.72457793 3.68384626 225.71058311 -11 228 C-11.7321875 228.12890625 -12.464375 228.2578125 -13.21875 228.390625 C-42.88609268 232.72662124 -72.87320344 224.23342611 -97 207 C-122.08141679 188.05174819 -138.49906644 162.06927275 -144 131 C-144.13019531 130.27554688 -144.26039063 129.55109375 -144.39453125 128.8046875 C-148.47228378 100.20604976 -140.87656374 69.40942713 -124 46 C-121.42320504 42.58638449 -118.7420197 39.28161393 -116 36 C-115.48179688 35.33484375 -114.96359375 34.6696875 -114.4296875 33.984375 C-89.04978059 2.61021872 -37.95806537 -11.33589283 0 0 Z " fill="#1A2734" transform="translate(157,15)"/>
<path d="M0 0 C6.29234609 3.87406394 10.80813038 7.96418249 13.04296875 15.2578125 C13.60278321 21.20832663 13.50913949 27.13039758 13.43359375 33.1015625 C13.42612418 34.83890123 13.42043463 36.57624843 13.41644287 38.31359863 C13.40124279 42.86429512 13.3620103 47.41447288 13.31762695 51.96496582 C13.27655213 56.61719752 13.25840589 61.26951385 13.23828125 65.921875 C13.19550993 75.03408083 13.12732765 84.14590336 13.04296875 93.2578125 C10.53639472 91.75997213 8.04095047 90.25652668 5.578125 88.6875 C4.76214844 88.17445313 3.94617188 87.66140625 3.10546875 87.1328125 C1.88537109 86.35550781 1.88537109 86.35550781 0.640625 85.5625 C-6.62701757 81.91228554 -16.94596162 82.26291102 -24.95703125 83.2578125 C-27.98642057 84.29542369 -30.45641355 85.4872767 -33.171875 87.1640625 C-34.95703125 88.2578125 -34.95703125 88.2578125 -36.95703125 88.2578125 C-37.14240368 77.2618332 -37.2845437 66.26622558 -37.37152863 55.26900196 C-37.41327827 50.1624158 -37.46990109 45.05689859 -37.56054688 39.95092773 C-37.647483 35.02306819 -37.69530706 30.0962365 -37.71604919 25.1676693 C-37.73082967 23.28765361 -37.75969441 21.40769415 -37.8028717 19.52811623 C-37.86098408 16.89356713 -37.86894419 14.26326088 -37.86523438 11.62817383 C-37.89399658 10.85133743 -37.92275879 10.07450104 -37.95239258 9.27412415 C-37.91906738 7.08601379 -37.91906738 7.08601379 -36.95703125 3.2578125 C-27.83499812 -5.10539041 -10.78069341 -5.30684736 0 0 Z " fill="#F8F8F9" transform="translate(110.95703125,64.7421875)"/>
<path d="M0 0 C0.33 33.66 0.66 67.32 1 102 C19.315 102.495 19.315 102.495 38 103 C42.85408268 106.23605512 47.18826394 109.5614864 51.6328125 113.29296875 C57.62223023 117.61207031 65.93197498 116.64933282 73 116 C76.90159016 114.62983527 79.8589367 112.47481383 82.39477539 109.19726562 C85.56412051 105.47427814 88.4610042 103.85284688 93.30249023 103.43383789 C98.5398578 103.22316154 103.76387837 103.38902249 109 103.5625 C110.84238879 103.5976502 112.68484195 103.62958269 114.52734375 103.65820312 C119.01982978 103.73495785 123.50920213 103.855535 128 104 C129.14449996 100.56650013 129.10394092 97.96593116 129.07836914 94.34472656 C129.07225393 92.95216956 129.06632709 91.55961172 129.06056213 90.16705322 C129.05588991 89.42983284 129.05121769 88.69261246 129.04640388 87.93305206 C129.02720697 84.02044987 129.04244035 80.10792887 129.05273438 76.1953125 C129.06497433 71.22004665 129.06670078 66.24563998 129.02416992 61.27050781 C128.99067953 57.24646033 128.99627222 53.22410917 129.02773857 49.20006561 C129.03265063 47.67073246 129.02343928 46.14128333 128.99952888 44.61212921 C128.82350285 32.64958312 128.82350285 32.64958312 131.81027222 28.46179199 C136.8028684 24 136.8028684 24 139 24 C139.06952787 34.34430764 139.12282548 44.68855963 139.15543652 55.0330534 C139.17108864 59.83649134 139.1923187 64.63976934 139.22631836 69.44311523 C139.25892789 74.07911055 139.27685643 78.71495208 139.28463173 83.35105324 C139.29017237 85.11928541 139.30099191 86.88750923 139.31719017 88.65567589 C139.33898578 91.1335096 139.34196606 93.61070881 139.34057617 96.08862305 C139.351362 96.81870575 139.36214783 97.54878845 139.3732605 98.30099487 C139.34642071 102.7266104 138.69632254 105.4725675 136 109 C131.04663681 113.32968847 127.14425385 113.54786478 120.8828125 113.390625 C120.02565643 113.38496521 119.16850037 113.37930542 118.28536987 113.37347412 C115.5646632 113.35119639 112.84530432 113.30101774 110.125 113.25 C108.27345661 113.2299238 106.42189244 113.211675 104.5703125 113.1953125 C100.0463607 113.15136001 95.52340836 113.08239359 91 113 C90.70810791 113.62253662 90.41621582 114.24507324 90.11547852 114.88647461 C87.34947649 120.12728869 81.1639827 123.83595403 75.75 125.9375 C67.10657339 128.37035259 57.04376325 128.20569705 49 124 C44.22911847 120.88953551 40.4430761 118.21050208 38 113 C36.81970215 113.02618408 35.6394043 113.05236816 34.42333984 113.0793457 C30.02900271 113.17009567 25.63474779 113.22733906 21.23974609 113.2746582 C19.34051569 113.29974604 17.4413813 113.33382468 15.54248047 113.37719727 C12.80672479 113.4381033 10.0722493 113.46626653 7.3359375 113.48828125 C6.49195404 113.51408768 5.64797058 113.5398941 4.77841187 113.56648254 C0.59411987 113.56845689 -2.13551797 113.33442903 -5.45849609 110.65698242 C-8.55468335 107.42011346 -10.24620149 105.45985539 -10.26742554 100.99711609 C-10.27595551 100.18549011 -10.28448547 99.37386414 -10.29327393 98.53764343 C-10.29236755 97.65083389 -10.29146118 96.76402435 -10.29052734 95.8503418 C-10.29724457 94.91344513 -10.30396179 93.97654846 -10.31088257 93.01126099 C-10.32991435 89.90719327 -10.33378957 86.80334122 -10.3359375 83.69921875 C-10.34236248 81.54311534 -10.34909061 79.38701281 -10.35610962 77.23091125 C-10.36809582 72.70738708 -10.37178913 68.18393934 -10.37060547 63.66040039 C-10.37040236 57.8664113 -10.39769088 52.07291313 -10.43214989 46.27904034 C-10.45439922 41.82403822 -10.45844359 37.36915454 -10.45738602 32.91410255 C-10.45974546 30.77828087 -10.46858824 28.64245609 -10.48405075 26.50668907 C-10.50366785 23.51672508 -10.49788887 20.52782325 -10.48583984 17.5378418 C-10.49707886 16.65710495 -10.50831787 15.7763681 -10.51989746 14.86894226 C-10.46432403 9.43622209 -9.65577331 6.28579103 -6 2 C-3 0 -3 0 0 0 Z " fill="#F5F6F6" transform="translate(64,73)"/>
<path d="M0 0 C3.1086616 27.5893717 3.1086616 27.5893717 1.42578125 37.3203125 C1.28527344 38.20460937 1.14476562 39.08890625 1 40 C1.33 40.33 1.66 40.66 2 41 C3.48228417 40.95977099 4.96232087 40.83793684 6.4375 40.6875 C7.91863281 40.53861328 7.91863281 40.53861328 9.4296875 40.38671875 C14.37991827 39.85053402 19.32963792 39.31001158 24.27709961 38.7487793 C29.84831774 38.11750261 35.41944944 37.55805506 41 37 C41 52.51 41 68.02 41 84 C36 82 36 82 34.2109375 80.9296875 C26.47340741 76.48472341 16.62237766 76.7403637 8 78 C1.35807124 80.16054346 -3.61576131 83.65631836 -9 88 C-9.09281939 77.95103772 -9.16382554 67.90217801 -9.20724869 57.8528738 C-9.22809328 53.18618528 -9.25635351 48.5197908 -9.30175781 43.85327148 C-9.34532753 39.3469308 -9.36916063 34.84087235 -9.37950897 30.33433723 C-9.38688042 28.61797711 -9.40127524 26.90163184 -9.42292023 25.18539238 C-9.45210298 22.77487089 -9.45594993 20.36550466 -9.45410156 17.95483398 C-9.46848267 17.25064331 -9.48286377 16.54645264 -9.49768066 15.82092285 C-9.44679947 9.65884712 -7.28893011 5.72910898 -3.375 1.0625 C-2 0 -2 0 0 0 Z " fill="#F6F7F7" transform="translate(143,70)"/>
<path d="M0 0 C5.52238508 3.07354464 10.09376741 6.76033814 11.96484375 12.94140625 C13.13353788 21.56618774 12.94945836 29.16511995 8.15625 36.73046875 C1.13164651 43.81768011 -5.48027448 45.94700787 -15.28515625 46.81640625 C-16.34734375 46.93242188 -17.40953125 47.0484375 -18.50390625 47.16796875 C-23.03539501 47.64616606 -27.47588202 48.00012261 -32.03515625 47.94140625 C-36.87250258 18.65818472 -36.87250258 18.65818472 -32.03515625 10.25390625 C-30.66796875 8.55078125 -30.66796875 8.55078125 -29.03515625 6.94140625 C-28.37257812 6.2865625 -27.71 5.63171875 -27.02734375 4.95703125 C-19.51161482 -1.97629802 -9.76608141 -3.40618798 0 0 Z " fill="#F7F8F8" transform="translate(188.03515625,52.05859375)"/>
<path d="M0 0 C5.64098211 3.23975324 10.48987066 6.76755991 14.0625 12.265625 C15.93062704 15.50153083 15.93062704 15.50153083 18.625 15.875 C22.51089655 15.08426524 24.17583971 12.58602081 26.5625 9.640625 C32.48230493 2.75045926 38.65932412 -2.07679622 47.9765625 -2.91015625 C57.71359218 -3.15422428 65.6318257 -0.73556524 73.3125 5.328125 C73.3125 5.988125 73.3125 6.648125 73.3125 7.328125 C72.47589844 7.34270752 71.63929688 7.35729004 70.77734375 7.37231445 C67.63846557 7.43379719 64.50020584 7.50802665 61.36181641 7.59057617 C59.34949689 7.63972145 57.33684268 7.67448788 55.32421875 7.70898438 C44.0211131 7.89769491 44.0211131 7.89769491 34.24609375 13.046875 C33.50552734 13.92859375 33.50552734 13.92859375 32.75 14.828125 C28.6156747 19.25241429 24.33986316 21.39513903 18.25 21.765625 C12.85174266 21.16581863 10.27059419 18.89250986 6.1171875 15.57421875 C5.33601563 14.95675781 4.55484375 14.33929688 3.75 13.703125 C3.02683594 13.11273438 2.30367187 12.52234375 1.55859375 11.9140625 C-3.07696916 8.640952 -7.11787483 8.05756224 -12.73828125 7.9140625 C-13.39708786 7.89469635 -14.05589447 7.8753302 -14.73466492 7.8553772 C-16.82298143 7.79596559 -18.91135424 7.74935209 -21 7.703125 C-22.42254905 7.66490968 -23.84507584 7.62585591 -25.26757812 7.5859375 C-28.74068074 7.49029704 -32.21395132 7.40612527 -35.6875 7.328125 C-35.6875 6.668125 -35.6875 6.008125 -35.6875 5.328125 C-33.89453125 3.890625 -33.89453125 3.890625 -31.5 2.328125 C-30.72269531 1.8125 -29.94539063 1.296875 -29.14453125 0.765625 C-20.21644747 -4.4578008 -9.33861954 -4.36211834 0 0 Z " fill="#EFF1F1" transform="translate(109.6875,159.671875)"/>
<path d="M0 0 C3.96122627 1.09786796 5.47260578 2.29470823 8.0859375 5.578125 C9.21010135 8.86016659 9.13101108 11.27569249 8.0859375 14.578125 C5.48908734 18.35950331 2.40546146 21.42910629 -0.9140625 24.578125 C-1.52121094 25.22652344 -2.12835938 25.87492187 -2.75390625 26.54296875 C-5.83283984 29.62190234 -8.13956449 30.98248899 -12.5390625 31.265625 C-16.14675266 31.02552275 -16.91838969 30.57469931 -19.9140625 28.203125 C-21.91621367 25.57530159 -22.78916882 24.2182051 -23.4140625 21.015625 C-22.29508436 13.32265029 -14.96610138 6.93473819 -9.24609375 2.0625 C-6.06804461 0.03962115 -3.72110194 -0.39169494 0 0 Z " fill="#1D2A37" transform="translate(183.9140625,59.421875)"/>
<path d="M0 0 C1.4540625 0.99 1.4540625 0.99 2.9375 2 C3.0625 4.375 3.0625 4.375 2.9375 7 C0.9375 9 0.9375 9 -2.36328125 9.08984375 C-3.70084852 9.04858546 -5.03813773 8.99739755 -6.375 8.9375 C-11.74814104 8.72173234 -14.63085608 8.92950385 -19.0625 12 C-21.75 12.3125 -21.75 12.3125 -24.0625 12 C-24.7225 11.34 -25.3825 10.68 -26.0625 10 C-26.0625 6.17702244 -25.10512433 5.04262433 -22.375 2.3125 C-15.84442016 -2.60864784 -7.2729357 -4.15175682 0 0 Z " fill="#22303D" transform="translate(169.0625,124)"/>
<path d="M0 0 C4.05887602 1.6307984 6.9336841 3.9336841 10 7 C9.625 10.625 9.625 10.625 9 14 C4.65368321 14.52682628 2.52830109 13.13496015 -1.10546875 10.89453125 C-5.21000278 8.95651415 -9.53781652 9.68213403 -13.875 10.625 C-14.57625 10.74875 -15.2775 10.8725 -16 11 C-18 9 -18 9 -18.375 6.0625 C-18 3 -18 3 -16.3984375 1.33984375 C-11.44162124 -1.42919205 -5.48076549 -0.67286183 0 0 Z " fill="#23303C" transform="translate(104,98)"/>
<path d="M0 0 C3.16330704 1.71941044 5.80897015 3.3910014 8.359375 5.94140625 C8.609375 8.44140625 8.609375 8.44140625 8.359375 10.94140625 C7.699375 11.60140625 7.039375 12.26140625 6.359375 12.94140625 C2.55027605 12.61722762 0.57565337 12.08559183 -2.640625 9.94140625 C-5.19637924 9.85023107 -7.65518926 9.84498484 -10.203125 9.94140625 C-12.70917268 10.0357072 -15.1277679 10.03458287 -17.640625 9.94140625 C-19.640625 7.94140625 -19.640625 7.94140625 -20.140625 5.56640625 C-19.640625 2.94140625 -19.640625 2.94140625 -17.328125 0.62890625 C-12.02172009 -2.42477959 -5.57216902 -2.23381332 0 0 Z " fill="#21303D" transform="translate(105.640625,123.05859375)"/>
<path d="M0 0 C3.30557804 1.09861858 5.71040588 2.34854474 8 5 C9.0625 8.75 9.0625 8.75 9 12 C8 13 8 13 5.3125 13.25 C2 13 2 13 -0.9375 11.5 C-5.53797779 9.24670476 -9.36709602 9.69190491 -14.3125 10.625 C-15.6428125 10.810625 -15.6428125 10.810625 -17 11 C-19 9 -19 9 -19.4375 6.625 C-19 4 -19 4 -16.8984375 1.87109375 C-11.68025933 -1.49751453 -5.98484658 -0.7683249 0 0 Z " fill="#202F3A" transform="translate(105,74)"/>
</svg>
